<svg width="75" height="63" viewBox="0 0 75 63" fill="none" xmlns="http://www.w3.org/2000/svg">
<path d="M0 0.202686V62.7973H75V0.202686H0ZM5.75406 6.05294H69.2459V56.9471H5.75406V6.05294V6.05294ZM18.8416 13.4C17.0509 13.4 15.5443 14.0101 14.3234 15.2311C13.1026 16.452 12.4924 17.9586 12.4924 19.7492C12.4924 21.4585 13.1026 22.9228 14.3234 24.1437C15.5443 25.3646 17.0509 25.9748 18.8416 25.9748C20.5508 25.9748 22.0152 25.3646 23.2361 24.1437C24.4571 22.9228 25.0672 21.4584 25.0672 19.7492C25.0672 17.9586 24.457 16.452 23.2361 15.2311C22.0153 14.0101 20.5508 13.4 18.8416 13.4ZM45.8221 16.4945L31.4163 38.3481L23.7671 31.9989L12.4924 46.6474V50.9228H62.5076V33.7476L45.8221 16.4945Z" fill="#BABABA"/>
</svg>
